<mxfile host="app.diagrams.net" modified="2024-01-18T05:10:58.376Z" agent="Mozilla/5.0 (Windows NT 10.0; Win64; x64) AppleWebKit/537.36 (KHTML, like Gecko) Chrome/120.0.0.0 Safari/537.36 Edg/120.0.0.0" etag="3jfgN2IrA9ak65oVsZNh" version="22.1.18" type="github">
  <diagram id="C5RBs43oDa-KdzZeNtuy" name="Page-1">
    <mxGraphModel dx="1235" dy="636" grid="1" gridSize="10" guides="1" tooltips="1" connect="1" arrows="1" fold="1" page="1" pageScale="1" pageWidth="827" pageHeight="1169" math="0" shadow="0">
      <root>
        <mxCell id="WIyWlLk6GJQsqaUBKTNV-0" />
        <mxCell id="WIyWlLk6GJQsqaUBKTNV-1" parent="WIyWlLk6GJQsqaUBKTNV-0" />
        <mxCell id="ZbFpoXzCO-_wBTRkUF9V-0" value="&lt;b&gt;&lt;font style=&quot;font-size: 20px;&quot;&gt;Pre-process image&lt;/font&gt;&lt;/b&gt;" style="rounded=1;whiteSpace=wrap;html=1;absoluteArcSize=1;arcSize=14;strokeWidth=2;strokeColor=none;fillColor=#dae8fc;container=0;" parent="WIyWlLk6GJQsqaUBKTNV-1" vertex="1">
          <mxGeometry x="179.99998325250849" y="172.21" width="113.79410779559323" height="113.79310344827584" as="geometry" />
        </mxCell>
        <mxCell id="ZbFpoXzCO-_wBTRkUF9V-1" value="&lt;b&gt;&lt;font style=&quot;font-size: 20px;&quot;&gt;Initialize kernel&lt;/font&gt;&lt;/b&gt;" style="rounded=1;whiteSpace=wrap;html=1;absoluteArcSize=1;arcSize=14;strokeWidth=2;strokeColor=none;fillColor=#dae8fc;container=0;" parent="WIyWlLk6GJQsqaUBKTNV-1" vertex="1">
          <mxGeometry x="400.0034984781628" y="172.21" width="113.79410779559323" height="113.79310344827584" as="geometry" />
        </mxCell>
        <mxCell id="ZbFpoXzCO-_wBTRkUF9V-5" style="edgeStyle=orthogonalEdgeStyle;rounded=0;orthogonalLoop=1;jettySize=auto;html=1;entryX=0;entryY=0.5;entryDx=0;entryDy=0;strokeWidth=3;strokeColor=#FFFFFF;" parent="WIyWlLk6GJQsqaUBKTNV-1" source="ZbFpoXzCO-_wBTRkUF9V-0" target="ZbFpoXzCO-_wBTRkUF9V-1" edge="1">
          <mxGeometry relative="1" as="geometry" />
        </mxCell>
        <mxCell id="ZbFpoXzCO-_wBTRkUF9V-2" value="&lt;b&gt;&lt;font style=&quot;font-size: 20px;&quot;&gt;Down Sample Image to current scale&lt;/font&gt;&lt;/b&gt;" style="rounded=1;whiteSpace=wrap;html=1;absoluteArcSize=1;arcSize=14;strokeWidth=2;strokeColor=none;fillColor=#fff2cc;container=0;" parent="WIyWlLk6GJQsqaUBKTNV-1" vertex="1">
          <mxGeometry x="570" y="152.22" width="153.79" height="153.78" as="geometry" />
        </mxCell>
        <mxCell id="ZbFpoXzCO-_wBTRkUF9V-4" style="edgeStyle=orthogonalEdgeStyle;rounded=0;orthogonalLoop=1;jettySize=auto;html=1;entryX=0;entryY=0.5;entryDx=0;entryDy=0;strokeWidth=3;strokeColor=#FFFFFF;" parent="WIyWlLk6GJQsqaUBKTNV-1" source="ZbFpoXzCO-_wBTRkUF9V-3" target="ZbFpoXzCO-_wBTRkUF9V-0" edge="1">
          <mxGeometry relative="1" as="geometry" />
        </mxCell>
        <mxCell id="ZbFpoXzCO-_wBTRkUF9V-3" value="&lt;b&gt;&lt;font style=&quot;font-size: 20px;&quot;&gt;Blurry image&lt;/font&gt;&lt;/b&gt;" style="shape=parallelogram;html=1;strokeWidth=2;perimeter=parallelogramPerimeter;whiteSpace=wrap;rounded=1;arcSize=12;size=0.23;strokeColor=none;fillColor=#d5e8d4;container=0;" parent="WIyWlLk6GJQsqaUBKTNV-1" vertex="1">
          <mxGeometry x="20" y="352.92" width="192.76" height="115.65" as="geometry" />
        </mxCell>
        <mxCell id="ZbFpoXzCO-_wBTRkUF9V-6" style="edgeStyle=orthogonalEdgeStyle;rounded=0;orthogonalLoop=1;jettySize=auto;html=1;entryX=0;entryY=0.5;entryDx=0;entryDy=0;strokeWidth=3;strokeColor=#FFFFFF;" parent="WIyWlLk6GJQsqaUBKTNV-1" source="ZbFpoXzCO-_wBTRkUF9V-1" target="ZbFpoXzCO-_wBTRkUF9V-2" edge="1">
          <mxGeometry relative="1" as="geometry" />
        </mxCell>
        <mxCell id="ZbFpoXzCO-_wBTRkUF9V-7" value="&lt;b&gt;&lt;font style=&quot;font-size: 20px;&quot;&gt;Iteratively estimate kernel with RFT and gradient prior&lt;/font&gt;&lt;/b&gt;" style="rounded=1;whiteSpace=wrap;html=1;absoluteArcSize=1;arcSize=14;strokeWidth=2;strokeColor=none;fillColor=#fff2cc;container=0;" parent="WIyWlLk6GJQsqaUBKTNV-1" vertex="1">
          <mxGeometry x="670" y="360" width="149.8" height="149.8" as="geometry" />
        </mxCell>
        <mxCell id="ZbFpoXzCO-_wBTRkUF9V-8" style="edgeStyle=orthogonalEdgeStyle;rounded=0;orthogonalLoop=1;jettySize=auto;html=1;exitX=1;exitY=0.5;exitDx=0;exitDy=0;strokeWidth=3;strokeColor=#FFFFFF;" parent="WIyWlLk6GJQsqaUBKTNV-1" source="ZbFpoXzCO-_wBTRkUF9V-2" target="ZbFpoXzCO-_wBTRkUF9V-7" edge="1">
          <mxGeometry relative="1" as="geometry" />
        </mxCell>
        <mxCell id="ZbFpoXzCO-_wBTRkUF9V-9" value="&lt;b&gt;&lt;font style=&quot;font-size: 20px;&quot;&gt;Remove isolated noise from kernel&lt;/font&gt;&lt;/b&gt;" style="rounded=1;whiteSpace=wrap;html=1;absoluteArcSize=1;arcSize=14;strokeWidth=2;strokeColor=none;fillColor=#e1d5e7;container=0;" parent="WIyWlLk6GJQsqaUBKTNV-1" vertex="1">
          <mxGeometry x="688.0058252144407" y="548.7965517241379" width="113.79410779559323" height="113.79310344827584" as="geometry" />
        </mxCell>
        <mxCell id="ZbFpoXzCO-_wBTRkUF9V-10" style="edgeStyle=orthogonalEdgeStyle;rounded=0;orthogonalLoop=1;jettySize=auto;html=1;exitX=0.5;exitY=1;exitDx=0;exitDy=0;entryX=0.5;entryY=0;entryDx=0;entryDy=0;strokeWidth=3;strokeColor=#FFFFFF;" parent="WIyWlLk6GJQsqaUBKTNV-1" source="ZbFpoXzCO-_wBTRkUF9V-7" target="ZbFpoXzCO-_wBTRkUF9V-9" edge="1">
          <mxGeometry relative="1" as="geometry" />
        </mxCell>
        <mxCell id="ZbFpoXzCO-_wBTRkUF9V-11" value="&lt;b&gt;&lt;font style=&quot;font-size: 20px;&quot;&gt;Scale = image dimension?&lt;/font&gt;&lt;/b&gt;" style="strokeWidth=2;html=1;shape=mxgraph.flowchart.decision;whiteSpace=wrap;strokeColor=none;fillColor=#fff2cc;container=0;" parent="WIyWlLk6GJQsqaUBKTNV-1" vertex="1">
          <mxGeometry x="200" y="530" width="151.38" height="151.38" as="geometry" />
        </mxCell>
        <mxCell id="ZbFpoXzCO-_wBTRkUF9V-12" style="edgeStyle=orthogonalEdgeStyle;rounded=0;orthogonalLoop=1;jettySize=auto;html=1;entryX=1;entryY=0.5;entryDx=0;entryDy=0;entryPerimeter=0;strokeWidth=3;strokeColor=#FFFFFF;" parent="WIyWlLk6GJQsqaUBKTNV-1" source="ZbFpoXzCO-_wBTRkUF9V-9" target="ZbFpoXzCO-_wBTRkUF9V-11" edge="1">
          <mxGeometry relative="1" as="geometry" />
        </mxCell>
        <mxCell id="ZbFpoXzCO-_wBTRkUF9V-15" style="edgeStyle=orthogonalEdgeStyle;rounded=0;orthogonalLoop=1;jettySize=auto;html=1;entryX=0.5;entryY=1;entryDx=0;entryDy=0;strokeWidth=3;strokeColor=#FFFFFF;" parent="WIyWlLk6GJQsqaUBKTNV-1" source="ZbFpoXzCO-_wBTRkUF9V-13" target="ZbFpoXzCO-_wBTRkUF9V-2" edge="1">
          <mxGeometry relative="1" as="geometry" />
        </mxCell>
        <mxCell id="ZbFpoXzCO-_wBTRkUF9V-13" value="&lt;b&gt;&lt;font style=&quot;font-size: 20px;&quot;&gt;Increase scale&lt;/font&gt;&lt;/b&gt;" style="rounded=1;whiteSpace=wrap;html=1;absoluteArcSize=1;arcSize=14;strokeWidth=2;strokeColor=none;fillColor=#dae8fc;container=0;" parent="WIyWlLk6GJQsqaUBKTNV-1" vertex="1">
          <mxGeometry x="319.9952862364746" y="369.99896551724134" width="113.79410779559323" height="113.79310344827584" as="geometry" />
        </mxCell>
        <mxCell id="ZbFpoXzCO-_wBTRkUF9V-14" style="edgeStyle=orthogonalEdgeStyle;rounded=0;orthogonalLoop=1;jettySize=auto;html=1;exitX=0;exitY=0.5;exitDx=0;exitDy=0;exitPerimeter=0;strokeWidth=3;strokeColor=#FFFFFF;" parent="WIyWlLk6GJQsqaUBKTNV-1" source="ZbFpoXzCO-_wBTRkUF9V-11" target="ZbFpoXzCO-_wBTRkUF9V-13" edge="1">
          <mxGeometry relative="1" as="geometry" />
        </mxCell>
        <mxCell id="iqAVx4L6dGUknro32ak0-3" value="&lt;font style=&quot;font-size: 20px;&quot;&gt;NO&lt;/font&gt;" style="edgeLabel;html=1;align=center;verticalAlign=middle;resizable=0;points=[];" vertex="1" connectable="0" parent="ZbFpoXzCO-_wBTRkUF9V-14">
          <mxGeometry x="0.1893" y="1" relative="1" as="geometry">
            <mxPoint as="offset" />
          </mxGeometry>
        </mxCell>
        <mxCell id="ZbFpoXzCO-_wBTRkUF9V-16" value="&lt;b&gt;&lt;font style=&quot;font-size: 20px;&quot;&gt;Iteratively estimate latent image with known kernel&lt;/font&gt;&lt;/b&gt;" style="rounded=1;whiteSpace=wrap;html=1;absoluteArcSize=1;arcSize=14;strokeWidth=2;strokeColor=none;fillColor=#e1d5e7;container=0;" parent="WIyWlLk6GJQsqaUBKTNV-1" vertex="1">
          <mxGeometry x="360" y="685" width="143.79" height="143.79" as="geometry" />
        </mxCell>
        <mxCell id="ZbFpoXzCO-_wBTRkUF9V-17" style="edgeStyle=orthogonalEdgeStyle;rounded=0;orthogonalLoop=1;jettySize=auto;html=1;exitX=0.5;exitY=1;exitDx=0;exitDy=0;exitPerimeter=0;entryX=0;entryY=0.5;entryDx=0;entryDy=0;strokeWidth=3;fontStyle=1;strokeColor=#FFFFFF;" parent="WIyWlLk6GJQsqaUBKTNV-1" source="ZbFpoXzCO-_wBTRkUF9V-11" target="ZbFpoXzCO-_wBTRkUF9V-16" edge="1">
          <mxGeometry relative="1" as="geometry" />
        </mxCell>
        <mxCell id="iqAVx4L6dGUknro32ak0-1" value="&lt;font style=&quot;font-size: 20px;&quot;&gt;YES&lt;br&gt;&lt;/font&gt;" style="edgeLabel;html=1;align=center;verticalAlign=middle;resizable=0;points=[];" vertex="1" connectable="0" parent="ZbFpoXzCO-_wBTRkUF9V-17">
          <mxGeometry x="-0.5357" y="2" relative="1" as="geometry">
            <mxPoint as="offset" />
          </mxGeometry>
        </mxCell>
        <mxCell id="ZbFpoXzCO-_wBTRkUF9V-18" value="&lt;b&gt;&lt;font style=&quot;font-size: 20px;&quot;&gt;Sharp image&lt;/font&gt;&lt;/b&gt;" style="shape=parallelogram;html=1;strokeWidth=2;perimeter=parallelogramPerimeter;whiteSpace=wrap;rounded=1;arcSize=12;size=0.23;strokeColor=none;fillColor=#d5e8d4;container=0;" parent="WIyWlLk6GJQsqaUBKTNV-1" vertex="1">
          <mxGeometry x="637.12" y="705.4300000000001" width="171.56" height="102.93" as="geometry" />
        </mxCell>
        <mxCell id="ZbFpoXzCO-_wBTRkUF9V-19" style="edgeStyle=orthogonalEdgeStyle;rounded=0;orthogonalLoop=1;jettySize=auto;html=1;exitX=1;exitY=0.5;exitDx=0;exitDy=0;entryX=0;entryY=0.5;entryDx=0;entryDy=0;strokeWidth=3;strokeColor=#FFFFFF;" parent="WIyWlLk6GJQsqaUBKTNV-1" source="ZbFpoXzCO-_wBTRkUF9V-16" target="ZbFpoXzCO-_wBTRkUF9V-18" edge="1">
          <mxGeometry relative="1" as="geometry" />
        </mxCell>
      </root>
    </mxGraphModel>
  </diagram>
</mxfile>
